<svg id="visual" viewBox="0 0 675 900" width="675" height="900" xmlns="http://www.w3.org/2000/svg" xmlns:xlink="http://www.w3.org/1999/xlink" version="1.1"><path d="M586 900L586 900L586 810L573 810L573 720L607 720L607 630L613 630L613 540L627 540L627 450L627 450L627 360L532 360L532 270L526 270L526 180L600 180L600 90L580 90L580 0L675 0L675 90L675 90L675 180L675 180L675 270L675 270L675 360L675 360L675 450L675 450L675 540L675 540L675 630L675 630L675 720L675 720L675 810L675 810L675 900L675 900Z" fill="#168aad"></path><path d="M539 900L519 900L519 810L499 810L499 720L573 720L573 630L546 630L546 540L566 540L566 450L586 450L586 360L458 360L458 270L499 270L499 180L532 180L532 90L526 90L526 0L581 0L581 90L601 90L601 180L527 180L527 270L533 270L533 360L628 360L628 450L628 450L628 540L614 540L614 630L608 630L608 720L574 720L574 810L587 810L587 900L587 900Z" fill="#0094af"></path><path d="M492 900L458 900L458 810L438 810L438 720L559 720L559 630L492 630L492 540L546 540L546 450L573 450L573 360L418 360L418 270L431 270L431 180L478 180L478 90L492 90L492 0L527 0L527 90L533 90L533 180L500 180L500 270L459 270L459 360L587 360L587 450L567 450L567 540L547 540L547 630L574 630L574 720L500 720L500 810L520 810L520 900L540 900Z" fill="#009eaf"></path><path d="M451 900L404 900L404 810L370 810L370 720L485 720L485 630L418 630L418 540L519 540L519 450L485 450L485 360L357 360L357 270L377 270L377 180L411 180L411 90L424 90L424 0L493 0L493 90L479 90L479 180L432 180L432 270L419 270L419 360L574 360L574 450L547 450L547 540L493 540L493 630L560 630L560 720L439 720L439 810L459 810L459 900L493 900Z" fill="#00a7ac"></path><path d="M337 900L289 900L289 810L269 810L269 720L364 720L364 630L235 630L235 540L310 540L310 450L202 450L202 360L228 360L228 270L316 270L316 180L202 180L202 90L208 90L208 0L425 0L425 90L412 90L412 180L378 180L378 270L358 270L358 360L486 360L486 450L520 450L520 540L419 540L419 630L486 630L486 720L371 720L371 810L405 810L405 900L452 900Z" fill="#27b0a8"></path><path d="M242 900L249 900L249 810L202 810L202 720L262 720L262 630L147 630L147 540L222 540L222 450L154 450L154 360L168 360L168 270L242 270L242 180L168 180L168 90L181 90L181 0L209 0L209 90L203 90L203 180L317 180L317 270L229 270L229 360L203 360L203 450L311 450L311 540L236 540L236 630L365 630L365 720L270 720L270 810L290 810L290 900L338 900Z" fill="#43b9a1"></path><path d="M100 900L107 900L107 810L100 810L100 720L107 720L107 630L94 630L94 540L53 540L53 450L46 450L46 360L60 360L60 270L40 270L40 180L107 180L107 90L94 90L94 0L182 0L182 90L169 90L169 180L243 180L243 270L169 270L169 360L155 360L155 450L223 450L223 540L148 540L148 630L263 630L263 720L203 720L203 810L250 810L250 900L243 900Z" fill="#5dc19a"></path><path d="M0 900L0 900L0 810L0 810L0 720L0 720L0 630L0 630L0 540L0 540L0 450L0 450L0 360L0 360L0 270L0 270L0 180L0 180L0 90L0 90L0 0L95 0L95 90L108 90L108 180L41 180L41 270L61 270L61 360L47 360L47 450L54 450L54 540L95 540L95 630L108 630L108 720L101 720L101 810L108 810L108 900L101 900Z" fill="#76c893"></path></svg>